<svg version="1.1" id="Layer_1" xmlns="http://www.w3.org/2000/svg" xmlns:xlink="http://www.w3.org/1999/xlink" x="0px" y="0px"
	 width="100%" viewBox="0 0 496 496" enable-background="new 0 0 496 496" xml:space="preserve">
<path fill="#000000" opacity="1.000000" stroke="none" 
	d="
M229.786835,314.650452 
	C253.838074,314.454102 272.920074,305.625275 286.353119,285.687561 
	C292.549957,276.489960 297.065002,266.515778 300.801758,256.142181 
	C301.986328,252.853790 303.010620,249.507416 304.210419,246.224884 
	C304.851440,244.471130 305.001282,241.675308 307.868713,242.614914 
	C310.345032,243.426376 309.096100,245.657974 308.686157,247.333511 
	C305.090576,262.030365 301.461853,276.719147 297.840698,291.409729 
	C295.970154,298.998322 293.975494,306.559052 292.274048,314.185272 
	C291.460907,317.829926 289.845917,319.342926 285.856720,319.330322 
	C241.359634,319.189758 196.861969,319.234222 152.364456,319.220490 
	C151.367294,319.220184 150.359375,319.195618 149.375702,319.051270 
	C148.085617,318.861938 147.223541,318.115875 147.228195,316.729767 
	C147.233292,315.213654 148.325195,314.845062 149.576843,314.713684 
	C151.394547,314.522919 153.238297,314.461487 155.024414,314.109070 
	C162.549332,312.624207 165.509567,309.105713 165.635284,301.366730 
	C165.735428,295.202026 165.657349,289.034393 165.656281,282.868073 
	C165.648621,238.203842 165.643906,193.539612 165.621765,148.875381 
	C165.620697,146.713898 165.651382,144.525986 165.348938,142.395569 
	C163.974472,132.713638 162.207932,131.080780 152.369553,129.994476 
	C151.213440,129.866806 150.048523,129.738235 148.918671,129.476395 
	C147.805328,129.218353 147.249146,128.392426 147.415710,127.253410 
	C147.553619,126.310295 148.287628,125.848221 149.173096,125.781342 
	C150.500320,125.681099 151.835678,125.655304 153.167587,125.655128 
	C194.998642,125.649628 236.830078,125.733864 278.660187,125.537094 
	C283.399994,125.514793 285.366943,127.147614 286.691498,131.495224 
	C289.890900,141.996460 293.647949,152.326675 297.017365,162.778336 
	C297.535980,164.387039 299.693085,166.844879 296.820862,167.885498 
	C293.816132,168.974136 293.698914,165.708572 292.813843,163.928314 
	C292.225311,162.744553 291.910706,161.425308 291.464996,160.169739 
	C285.386658,143.046234 274.663666,131.421265 255.373352,130.609772 
	C239.241867,129.931168 223.054977,129.139618 207.047974,132.155869 
	C197.789963,133.900360 195.388992,137.108429 195.389008,146.552124 
	C195.389038,167.217621 195.394745,187.883133 195.404556,208.548630 
	C195.407501,214.747879 195.645493,215.028534 201.893448,214.998642 
	C211.724564,214.951599 221.562347,215.026260 231.384491,214.682755 
	C245.775208,214.179474 253.928513,205.830460 254.706726,191.335037 
	C254.947662,186.847229 255.331863,182.367035 255.658737,177.883957 
	C255.757385,176.531158 255.816010,175.067078 257.683533,175.041824 
	C259.471741,175.017624 259.797974,176.388611 259.926514,177.771179 
	C260.034210,178.929993 260.041992,180.100952 260.042236,181.266525 
	C260.047150,206.431747 260.078186,231.597076 259.985931,256.761963 
	C259.977753,258.990295 261.199127,262.757477 257.706696,262.849335 
	C254.223038,262.940918 255.326340,259.148987 255.127914,256.906769 
	C254.571640,250.620483 255.258881,244.262222 253.780991,238.014297 
	C251.215607,227.168945 244.275864,220.869598 233.116135,220.409927 
	C222.133362,219.957520 211.124344,220.167816 200.128235,219.998230 
	C196.800446,219.946899 195.423218,221.122055 195.435806,224.690186 
	C195.523438,249.521164 195.366241,274.352936 195.424362,299.184113 
	C195.445312,308.139038 200.044479,312.785736 209.884415,313.559845 
	C216.344879,314.068054 222.795227,315.134277 229.786835,314.650452 
z"/>
<path fill="#000000" opacity="1.000000" stroke="none" 
	d="
M254.866974,152.109436 
	C253.400284,149.125458 252.082001,146.483078 250.738281,143.789703 
	C260.044617,141.961578 270.476196,146.846695 275.251007,155.170258 
	C278.913818,161.555374 281.536621,168.389984 283.487915,175.459412 
	C284.508423,179.156601 286.227386,181.404678 290.441254,180.691254 
	C294.503876,180.003464 296.723083,181.737152 298.282837,185.653351 
	C303.390564,198.477539 308.894318,211.143768 314.213409,223.884247 
	C314.847229,225.402298 315.281433,227.003647 315.870728,228.751984 
	C312.292358,230.912308 308.576508,229.871780 305.060211,229.919662 
	C296.741974,230.032944 296.748962,229.929047 293.814789,237.446243 
	C293.529877,238.176117 293.057068,238.832626 292.068237,240.603531 
	C289.096100,233.735962 286.453308,227.729568 283.893280,221.688080 
	C280.843506,214.490799 278.070984,207.167816 274.785919,200.081223 
	C272.430115,194.999283 272.576050,189.762115 272.585205,184.446976 
	C272.595520,178.454544 272.552765,172.461990 272.563080,166.469559 
	C272.567261,164.036499 272.018097,161.786621 269.020813,162.395096 
	C260.678741,164.088623 256.827850,159.783447 254.866974,152.109436 
z"/>
<path fill="#000000" opacity="1.000000" stroke="none" 
	d="
M343.743408,294.324097 
	C345.892181,299.254913 348.100098,303.724121 351.187683,307.693939 
	C355.254913,312.923309 360.456818,316.154144 367.172272,316.741821 
	C369.096130,316.910248 371.748810,316.662842 371.638489,319.462646 
	C371.531311,322.184753 368.894867,321.317749 367.275787,321.323029 
	C347.649078,321.386993 328.021912,321.386261 308.395233,321.308990 
	C306.828430,321.302795 304.177979,322.208832 304.200226,319.372803 
	C304.219147,316.964203 306.712769,317.142548 308.431641,316.840485 
	C315.628143,315.575928 318.721497,311.186920 317.249908,304.119507 
	C316.844513,302.172516 316.630585,300.046509 315.674683,298.377228 
	C311.371918,290.863373 312.109344,283.376434 314.522552,275.429810 
	C317.315460,266.232697 319.269867,256.781189 321.605438,247.444412 
	C321.720093,246.985947 321.998962,246.568558 322.867371,244.695801 
	C330.061462,261.815491 336.820343,277.899445 343.743408,294.324097 
z"/>
<path fill="#000000" opacity="1.000000" stroke="none" 
	d="
M225.557999,263.452942 
	C220.358887,275.874756 215.317947,287.940979 210.020599,300.620911 
	C206.700729,297.156311 208.268860,294.337402 209.302612,291.800690 
	C215.206802,277.312347 221.251892,262.881409 227.247955,248.430496 
	C228.906372,244.433594 230.520370,240.417542 232.237915,236.446259 
	C232.876282,234.970230 233.457520,232.948593 235.697952,233.759888 
	C238.192642,234.663254 236.797760,236.529007 236.242020,237.932114 
	C234.048645,243.469833 231.739304,248.961609 229.340561,254.792358 
	C232.971268,256.314636 236.312943,255.399338 239.515747,255.715118 
	C241.037201,255.865143 242.751450,255.865173 242.675766,257.986053 
	C242.603149,260.020966 240.931671,260.158783 239.391113,260.182983 
	C236.393631,260.230042 233.393982,260.271759 230.397537,260.207520 
	C228.160965,260.159576 226.495682,260.867310 225.557999,263.452942 
z"/>
<path fill="#000000" opacity="1.000000" stroke="none" 
	d="
M349.904144,344.780823 
	C350.246490,349.322723 352.718445,353.250946 351.730896,357.960327 
	C348.125763,356.476166 349.648956,352.708496 347.769470,350.627686 
	C345.400543,352.718689 345.774200,356.275818 343.369293,358.344086 
	C340.502289,356.562103 341.111847,352.856415 338.958496,350.694000 
	C336.522491,352.446442 338.310089,356.567047 334.351807,358.440369 
	C334.271423,352.219757 335.988403,347.112305 337.645050,341.455048 
	C340.909912,344.145599 340.420898,348.379639 343.312317,350.793549 
	C346.091949,348.324646 345.253815,343.946075 348.208923,341.887054 
	C349.593689,342.390869 349.274963,343.635742 349.904144,344.780823 
z"/>
<path fill="#000000" opacity="1.000000" stroke="none" 
	d="
M236.503937,341.897491 
	C239.328339,344.080811 240.259567,347.593292 243.244980,349.421661 
	C244.830154,347.152496 242.555954,343.859131 246.405960,341.570251 
	C247.869888,347.358063 246.897598,352.703613 247.185089,358.765381 
	C242.635788,356.801361 242.114792,352.519806 239.090775,350.257324 
	C236.997467,352.384338 239.494431,355.866089 237.028793,357.831818 
	C234.408173,355.073090 234.008240,346.711121 236.503937,341.897491 
z"/>
<path fill="#000000" opacity="1.000000" stroke="none" 
	d="
M322.326416,342.497406 
	C326.754486,345.656982 327.677643,349.579681 325.560272,354.010193 
	C323.669312,357.966980 320.140472,359.200073 315.993683,358.319305 
	C311.684967,357.404144 309.619751,354.356659 309.380493,350.145355 
	C309.020599,343.810516 314.555420,340.428650 322.326416,342.497406 
M316.902893,344.427460 
	C313.733185,345.326508 312.175354,347.459259 312.448975,350.708160 
	C312.668091,353.309753 314.263123,355.040802 316.800537,355.511627 
	C320.309296,356.162689 322.836121,354.520477 323.478577,351.122345 
	C324.300781,346.773407 321.840088,344.663208 316.902893,344.427460 
z"/>
<path fill="#000000" opacity="1.000000" stroke="none" 
	d="
M218.659119,358.612549 
	C212.062408,357.775391 208.446564,354.157623 208.951477,349.340546 
	C209.433624,344.740692 213.453781,341.375214 218.257553,341.568359 
	C222.699997,341.746948 225.299377,344.261749 226.188370,348.397369 
	C227.212082,353.159668 224.665863,356.570221 218.659119,358.612549 
M214.102783,345.604218 
	C211.416016,349.894318 211.720901,353.219482 215.115829,354.907745 
	C218.591934,356.636353 221.250061,355.479614 223.000519,352.149506 
	C224.037613,350.176483 223.749756,348.232513 222.296432,346.576630 
	C220.168304,344.151886 217.627487,343.532074 214.102783,345.604218 
z"/>
<path fill="#000000" opacity="1.000000" stroke="none" 
	d="
M270.536682,350.603485 
	C271.938538,347.258240 272.824493,344.063995 275.422882,341.017914 
	C278.712372,346.434723 280.438721,351.895844 282.538605,357.675262 
	C278.745209,358.041809 278.525330,354.054138 275.223236,354.174469 
	C271.972137,354.292999 271.775757,358.229858 268.578796,357.962433 
	C267.949799,355.233215 269.855621,353.253845 270.536682,350.603485 
z"/>
<path fill="#000000" opacity="1.000000" stroke="none" 
	d="
M191.968719,358.277405 
	C190.226105,357.311401 188.597076,356.586029 189.636551,354.177063 
	C192.478973,354.155487 195.498688,357.988037 198.358597,354.262024 
	C197.488770,351.281158 194.708405,351.519897 192.766541,350.558411 
	C190.516006,349.444031 188.659958,348.070618 189.231033,345.299622 
	C189.780609,342.632843 191.856857,341.635437 194.429230,341.623749 
	C197.010437,341.612000 199.695145,341.508392 200.274673,345.179504 
	C197.582642,346.208496 195.042526,342.241791 192.818878,345.531708 
	C192.531784,347.633667 194.298691,347.909546 195.588104,348.384705 
	C198.810562,349.572266 202.427872,350.730225 201.044479,355.120056 
	C199.701019,359.383240 195.953659,359.157715 191.968719,358.277405 
z"/>
<path fill="#000000" opacity="1.000000" stroke="none" 
	d="
M148.103638,342.005219 
	C152.844772,341.159821 156.561081,342.091644 158.858841,346.093781 
	C160.588623,349.106567 160.312149,352.119141 158.244385,354.988861 
	C155.861115,358.296448 152.514053,358.634186 148.885895,358.214020 
	C147.519257,358.055756 146.744965,357.178864 146.791595,355.870514 
	C146.954590,351.294647 145.658829,346.619415 148.103638,342.005219 
M149.716110,345.718964 
	C149.580673,347.505798 149.338272,349.292725 149.340500,351.079407 
	C149.342651,352.799744 148.841614,355.116699 151.356857,355.425873 
	C153.916626,355.740540 155.742996,354.217041 156.553436,351.797455 
	C157.967056,347.577148 154.978271,344.501007 149.716110,345.718964 
z"/>
<path fill="#000000" opacity="1.000000" stroke="none" 
	d="
M292.159302,357.695496 
	C289.428345,353.057465 290.261871,347.992462 291.187256,343.363770 
	C291.807587,340.260834 295.781525,341.418335 298.095581,342.100647 
	C301.289154,343.042358 302.206238,345.812408 301.124786,348.900452 
	C300.658539,350.231812 299.534882,351.332977 298.623016,352.665710 
	C299.559875,354.247650 300.461334,355.769806 301.568573,357.639374 
	C297.421692,358.896362 297.061035,354.705963 294.700562,353.678467 
	C292.648285,354.216248 293.930481,356.710968 292.159302,357.695496 
M298.461212,347.201599 
	C298.451935,344.649902 296.931488,343.947693 294.863007,344.715790 
	C293.149811,345.351990 292.880524,347.177673 293.827759,348.451721 
	C295.386230,350.547821 296.940186,349.453644 298.461212,347.201599 
z"/>
<path fill="#000000" opacity="1.000000" stroke="none" 
	d="
M137.955536,350.776306 
	C137.363159,353.098999 136.607559,354.943481 135.073090,356.295898 
	C132.480621,358.580688 129.292480,359.010864 126.249809,357.931061 
	C123.627487,357.000427 124.940414,354.213501 124.668404,352.224304 
	C124.513344,351.090363 124.456367,349.880127 124.680687,348.770050 
	C125.174026,346.328796 122.992645,342.656250 127.191803,341.831055 
	C131.466431,340.991028 135.071472,342.397949 137.046829,346.586548 
	C137.594208,347.747253 137.701813,349.115326 137.955536,350.776306 
M131.608490,344.948853 
	C125.329689,343.586334 127.727242,348.452332 127.355507,351.097870 
	C127.121918,352.760223 126.820938,355.156921 129.354752,355.420593 
	C131.875839,355.682953 133.837189,354.234344 134.541885,351.760620 
	C135.273544,349.192139 134.699631,346.859833 131.608490,344.948853 
z"/>
<path fill="#000000" opacity="1.000000" stroke="none" 
	d="
M382.164429,357.638611 
	C379.932068,355.070343 378.690918,352.091980 375.979431,350.141083 
	C374.565582,352.672150 376.128113,355.463715 373.401855,358.812378 
	C372.117981,352.545959 372.816895,347.362976 372.775635,341.599457 
	C377.008911,343.785675 377.752594,348.311279 381.088562,350.736328 
	C382.344696,347.906342 380.846680,344.865234 382.455688,342.322144 
	C385.173126,345.538361 385.096588,355.748901 382.164429,357.638611 
z"/>
<path fill="#000000" opacity="1.000000" stroke="none" 
	d="
M108.256821,355.186340 
	C110.384033,356.304871 112.916008,354.811951 114.733231,357.451355 
	C111.402718,358.691589 108.328293,359.104675 105.381401,357.316193 
	C104.239044,356.622864 104.387459,343.787109 105.290558,342.662384 
	C106.463928,341.201111 110.825851,341.268402 114.466797,342.830383 
	C113.721085,344.729675 112.009300,344.100220 110.657509,344.258881 
	C109.089478,344.442902 107.486572,344.620941 107.602005,346.678314 
	C107.702477,348.469116 109.243309,348.457214 110.585381,348.599518 
	C111.868713,348.735596 113.290550,348.411896 114.360970,349.666687 
	C113.866188,352.100983 111.802406,351.114349 110.386932,351.361816 
	C108.232384,351.738556 106.831757,352.449951 108.256821,355.186340 
z"/>
<path fill="#000000" opacity="1.000000" stroke="none" 
	d="
M171.035797,348.212708 
	C169.928070,346.034058 167.850769,344.750305 167.930481,342.057343 
	C171.590302,341.162018 171.598724,345.508942 174.231689,346.219910 
	C176.896912,346.075867 176.922455,341.599792 181.149124,342.156036 
	C178.114395,347.268677 175.474854,352.275177 175.177902,358.786377 
	C171.188568,355.468536 174.151260,351.005493 171.035797,348.212708 
z"/>
<path fill="#000000" opacity="1.000000" stroke="none" 
	d="
M275.638641,260.170349 
	C273.706604,260.064911 272.640686,259.504211 272.747650,257.759888 
	C272.837891,256.288086 273.839417,255.760712 275.107239,255.773758 
	C278.874603,255.812531 282.686829,255.182541 287.010071,256.464478 
	C284.673492,262.464050 279.633179,259.304474 275.638641,260.170349 
z"/>
<path fill="#000000" opacity="1.000000" stroke="none" 
	d="
M360.645813,353.702576 
	C360.880005,349.627380 360.070190,345.886169 361.954254,342.404236 
	C363.844513,347.385406 363.317627,352.404755 362.906677,357.621643 
	C360.191711,357.223206 360.885162,355.440613 360.645813,353.702576 
z"/>
</svg>